<svg width="100" height="96" viewBox="0 0 100 96" fill="none" xmlns="http://www.w3.org/2000/svg">
<path fill-rule="evenodd" clip-rule="evenodd" d="M18.2532 59.166C18.4734 59.392 18.5957 59.6957 18.5936 60.0113C18.5915 60.3268 18.4651 60.6289 18.2419 60.8519C18.0187 61.075 17.7166 61.2012 17.401 61.2031C17.0855 61.205 16.7818 61.0825 16.5559 60.8621L9.81504 54.1212C9.59023 53.8962 9.46396 53.5912 9.46396 53.2731C9.46396 52.9551 9.59023 52.65 9.81504 52.4251L16.5559 45.6841C16.6668 45.5704 16.7991 45.4797 16.9453 45.4175C17.0914 45.3553 17.2485 45.3227 17.4073 45.3216C17.5662 45.3205 17.7237 45.351 17.8706 45.4113C18.0176 45.4716 18.1512 45.5604 18.2635 45.6727C18.3759 45.785 18.4648 45.9185 18.5252 46.0654C18.5856 46.2124 18.6162 46.3698 18.6152 46.5287C18.6142 46.6875 18.5818 46.8446 18.5196 46.9908C18.4575 47.137 18.3669 47.2694 18.2532 47.3803L12.3559 53.2787L18.2487 59.1716L18.2532 59.166ZM35.3727 47.3803C35.256 47.2701 35.1626 47.1377 35.098 46.9908C35.0335 46.8439 34.999 46.6855 34.9967 46.5251C34.9944 46.3647 35.0243 46.2054 35.0846 46.0567C35.145 45.908 35.2345 45.7729 35.348 45.6595C35.4615 45.546 35.5965 45.4565 35.7452 45.3961C35.8939 45.3358 36.0532 45.3059 36.2136 45.3082C36.3741 45.3105 36.5324 45.3449 36.6793 45.4095C36.8262 45.4741 36.9587 45.5675 37.0688 45.6841L43.8097 52.4251C43.9213 52.5363 44.0098 52.6685 44.0702 52.814C44.1306 52.9595 44.1617 53.1156 44.1617 53.2731C44.1617 53.4307 44.1306 53.5867 44.0702 53.7322C44.0098 53.8778 43.9213 54.01 43.8097 54.1212L37.0688 60.8621C36.9587 60.9788 36.8262 61.0722 36.6793 61.1368C36.5324 61.2013 36.3741 61.2358 36.2136 61.2381C36.0532 61.2404 35.8939 61.2105 35.7452 61.1501C35.5965 61.0898 35.4615 61.0003 35.348 60.8868C35.2345 60.7733 35.145 60.6383 35.0846 60.4896C35.0243 60.3409 34.9944 60.1816 34.9967 60.0212C34.999 59.8607 35.0335 59.7024 35.098 59.5555C35.1626 59.4086 35.256 59.2761 35.3727 59.166L41.2655 53.2731L35.3727 47.3803ZM93.3543 3.23896C87.8922 0.987129 82.024 -0.112453 76.1172 0.00910808C70.2108 -0.112621 64.3429 0.98697 58.8813 3.23896C54.7776 5.1054 52.2389 7.58352 52.2389 10.2241C52.2389 12.8647 54.7776 15.3406 58.8813 17.2081C64.3426 19.461 70.2107 20.561 76.1172 20.4391C82.0244 20.56 87.8928 19.4588 93.3543 17.2047C97.458 15.3372 99.9966 12.8613 99.9966 10.2207C99.9966 7.58016 97.458 5.1054 93.3543 3.23896ZM59.3652 38.3047C59.5173 38.359 59.6567 38.4436 59.7753 38.5532C59.8938 38.6628 59.989 38.7952 60.0551 38.9425C60.1212 39.0898 60.1569 39.2489 60.16 39.4103C60.1631 39.5717 60.1336 39.7321 60.0732 39.8819C60.0128 40.0316 59.9228 40.1676 59.8085 40.2816C59.6943 40.3957 59.5582 40.4855 59.4083 40.5457C59.2585 40.6059 59.0981 40.6352 58.9367 40.6318C58.7753 40.6285 58.6162 40.5926 58.469 40.5262C58.1575 40.3996 57.8091 40.2473 57.4237 40.0725C57.066 39.909 56.737 39.751 56.4367 39.5986C56.1534 39.4556 55.9386 39.2058 55.8394 38.9043C55.7402 38.6028 55.7649 38.2743 55.908 37.991C56.051 37.7077 56.3008 37.4928 56.6023 37.3936C56.9038 37.2945 57.2323 37.3191 57.5156 37.4622C57.8259 37.6202 58.1273 37.7658 58.4118 37.8969C58.6747 38.0164 58.9933 38.1523 59.3652 38.3047ZM59.3652 24.4632C59.5173 24.5176 59.6567 24.6021 59.7753 24.7117C59.8938 24.8213 59.989 24.9538 60.0551 25.101C60.1212 25.2483 60.1569 25.4075 60.16 25.5689C60.1631 25.7303 60.1336 25.8907 60.0732 26.0404C60.0128 26.1902 59.9228 26.3261 59.8085 26.4402C59.6943 26.5543 59.5582 26.6441 59.4083 26.7043C59.2585 26.7645 59.0981 26.7938 58.9367 26.7904C58.7753 26.7871 58.6162 26.7511 58.469 26.6848C58.1575 26.5571 57.8091 26.4059 57.4237 26.2311C57.066 26.0675 56.737 25.9096 56.4367 25.7572C56.1619 25.6092 55.9557 25.3598 55.8621 25.062C55.7684 24.7643 55.7947 24.4418 55.9354 24.1631C56.076 23.8845 56.3199 23.6717 56.615 23.5702C56.9102 23.4687 57.2333 23.4864 57.5156 23.6196C57.8259 23.7787 58.1273 23.9232 58.4118 24.0554C58.6747 24.1757 58.9933 24.3116 59.3652 24.4632ZM59.3652 52.1461C59.5173 52.2005 59.6567 52.285 59.7753 52.3946C59.8938 52.5042 59.989 52.6366 60.0551 52.7839C60.1212 52.9312 60.1569 53.0903 60.16 53.2518C60.1631 53.4132 60.1336 53.5736 60.0732 53.7233C60.0128 53.873 59.9228 54.009 59.8085 54.1231C59.6943 54.2372 59.5582 54.327 59.4083 54.3872C59.2585 54.4473 59.0981 54.4766 58.9367 54.4733C58.7753 54.4699 58.6162 54.434 58.469 54.3677C58.1575 54.2415 57.8091 54.0921 57.4237 53.9196C57.066 53.7567 56.737 53.5991 56.4367 53.4468C56.1619 53.2988 55.9557 53.0494 55.8621 52.7516C55.7684 52.4539 55.7947 52.1313 55.9354 51.8527C56.076 51.574 56.3199 51.3613 56.615 51.2598C56.9102 51.1583 57.2333 51.176 57.5156 51.3092C57.8259 51.4672 58.1273 51.6128 58.4118 51.745C58.6751 51.8638 58.9922 52.0005 59.3641 52.1517L59.3652 52.1461ZM25.1958 63.9755C25.1081 64.2761 24.9062 64.5305 24.6333 64.6841C24.3605 64.8378 24.0383 64.8786 23.7357 64.7978C23.4332 64.717 23.1742 64.521 23.0143 64.2518C22.8544 63.9825 22.8063 63.6614 22.8801 63.357L28.4492 42.5753C28.4898 42.4233 28.5599 42.2808 28.6556 42.156C28.7512 42.0311 28.8706 41.9263 29.0068 41.8475C29.1429 41.7688 29.2933 41.7176 29.4492 41.697C29.6052 41.6763 29.7637 41.6866 29.9156 41.7272C30.0676 41.7678 30.2101 41.838 30.335 41.9336C30.4598 42.0293 30.5646 42.1486 30.6434 42.2848C30.7221 42.421 30.7733 42.5713 30.7939 42.7273C30.8146 42.8832 30.8043 43.0417 30.7637 43.1937L25.1958 63.9755ZM95.9994 57.8138C96.0666 57.7577 96.1399 57.7092 96.2178 57.6692C98.6074 56.075 100 54.2097 100 52.2548V43.6071C98.3722 45.2155 96.4559 46.5028 94.3514 47.4016C88.578 49.7993 82.3709 50.976 76.1206 50.8577C69.8706 50.9762 63.6638 49.7994 57.8909 47.4016C55.785 46.5035 53.8675 45.2161 52.2389 43.6071V52.2492C52.2389 54.8897 54.7776 57.3656 58.8813 59.2332C64.3426 61.4865 70.2106 62.5869 76.1172 62.4653C82.0242 62.5869 87.8926 61.4865 93.3543 59.2332C94.2681 58.8225 95.151 58.3462 95.996 57.8081L95.9994 57.8138ZM49.8426 30.2216H0V92.7506C0.00265865 93.4976 0.300636 94.2131 0.828911 94.7412C1.35719 95.2693 2.07288 95.567 2.81982 95.5693H92.7404C93.487 95.5661 94.202 95.2681 94.7299 94.7402C95.2578 94.2122 95.5558 93.4972 95.5591 92.7506V60.8218C95.1692 61.0257 94.7655 61.2225 94.348 61.4122C88.5747 63.8099 82.3675 64.9866 76.1172 64.8683C69.8673 64.9868 63.6605 63.81 57.8875 61.4122C52.9156 59.1492 49.8392 55.9171 49.8392 52.2536V30.216L49.8426 30.2216ZM52.8742 30.2216H52.2389V38.2487C52.2389 40.8892 54.7776 43.3651 58.8813 45.2327C64.3428 47.4848 70.2108 48.5841 76.1172 48.4614C82.0244 48.5823 87.8928 47.4811 93.3543 45.2271C97.458 43.3595 99.9966 40.8836 99.9966 38.2431V29.601C98.3689 31.2094 96.4525 32.4967 94.348 33.3955C88.5747 35.7932 82.3675 36.9699 76.1172 36.8516C69.8673 36.9701 63.6605 35.7933 57.8875 33.3955C56.0615 32.6004 54.3693 31.5279 52.8708 30.216L52.8742 30.2216ZM54.0673 28.0673C53.5252 27.5807 53.0847 26.9919 52.7709 26.3345C52.4571 25.6772 52.2764 24.9644 52.2389 24.2369V15.5881C53.8665 17.1968 55.7829 18.4841 57.8875 19.3826C63.6605 21.7805 69.8673 22.9572 76.1172 22.8388C82.3675 22.9571 88.5747 21.7803 94.348 19.3826C96.4525 18.4839 98.3689 17.1966 99.9966 15.5881V24.2369C99.9966 26.8775 97.458 29.3534 93.3543 31.2209C87.8929 33.4758 82.0245 34.5777 76.1172 34.4575C70.2107 34.5795 64.3426 33.4795 58.8813 31.2265C57.1963 30.5046 55.642 29.5095 54.2813 28.2813C54.218 28.2012 54.145 28.1293 54.0639 28.0673H54.0673ZM34.7755 20.7024C34.4573 20.7024 34.1521 20.5759 33.9271 20.3509C33.7021 20.1259 33.5757 19.8207 33.5757 19.5025C33.5757 19.1843 33.7021 18.8791 33.9271 18.6541C34.1521 18.4291 34.4573 18.3027 34.7755 18.3027H49.8392V11.6525H2.81982C2.07287 11.6554 1.35735 11.9535 0.829166 12.4817C0.300985 13.0098 0.00295009 13.7254 0 14.4723V27.8163H49.8392V20.6968L34.7755 20.7024ZM8.28469 20.7024C7.96647 20.7024 7.66129 20.5759 7.43627 20.3509C7.21125 20.1259 7.08484 19.8207 7.08484 19.5025C7.08484 19.1843 7.21125 18.8791 7.43627 18.6541C7.66129 18.4291 7.96647 18.3027 8.28469 18.3027H8.29029C8.60852 18.3027 8.9137 18.4291 9.13872 18.6541C9.36374 18.8791 9.49015 19.1843 9.49015 19.5025C9.49015 19.8207 9.36374 20.1259 9.13872 20.3509C8.9137 20.5759 8.60852 20.7024 8.29029 20.7024H8.28469ZM16.799 20.7024C16.4808 20.7024 16.1756 20.5759 15.9506 20.3509C15.7256 20.1259 15.5992 19.8207 15.5992 19.5025C15.5992 19.1843 15.7256 18.8791 15.9506 18.6541C16.1756 18.4291 16.4808 18.3027 16.799 18.3027H16.8047C17.1229 18.3027 17.4281 18.4291 17.6531 18.6541C17.8781 18.8791 18.0045 19.1843 18.0045 19.5025C18.0045 19.8207 17.8781 20.1259 17.6531 20.3509C17.4281 20.5759 17.1229 20.7024 16.8047 20.7024H16.799ZM25.3134 20.7024C24.9952 20.7024 24.69 20.5759 24.465 20.3509C24.24 20.1259 24.1136 19.8207 24.1136 19.5025C24.1136 19.1843 24.24 18.8791 24.465 18.6541C24.69 18.4291 24.9952 18.3027 25.3134 18.3027H25.319C25.6372 18.3027 25.9424 18.4291 26.1674 18.6541C26.3924 18.8791 26.5189 19.1843 26.5189 19.5025C26.5189 19.8207 26.3924 20.1259 26.1674 20.3509C25.9424 20.5759 25.6372 20.7024 25.319 20.7024H25.3134ZM10.6631 74.6587C10.3449 74.6587 10.0397 74.5323 9.81469 74.3073C9.58967 74.0823 9.46326 73.7771 9.46326 73.4589C9.46326 73.1407 9.58967 72.8355 9.81469 72.6104C10.0397 72.3854 10.3449 72.259 10.6631 72.259H84.896C85.2142 72.259 85.5194 72.3854 85.7444 72.6104C85.9694 72.8355 86.0958 73.1407 86.0958 73.4589C86.0958 73.7771 85.9694 74.0823 85.7444 74.3073C85.5194 74.5323 85.2142 74.6587 84.896 74.6587H10.6631ZM10.6631 84.4536C10.3449 84.4536 10.0397 84.3272 9.81469 84.1022C9.58967 83.8772 9.46326 83.572 9.46326 83.2537C9.46326 82.9355 9.58967 82.6303 9.81469 82.4053C10.0397 82.1803 10.3449 82.0539 10.6631 82.0539H84.896C85.2142 82.0539 85.5194 82.1803 85.7444 82.4053C85.9694 82.6303 86.0958 82.9355 86.0958 83.2537C86.0958 83.572 85.9694 83.8772 85.7444 84.1022C85.5194 84.3272 85.2142 84.4536 84.896 84.4536H10.6631Z" fill="black"/>
</svg>
