<svg width="100" height="100" viewBox="0 0 100 100" fill="none" xmlns="http://www.w3.org/2000/svg">
<path d="M89 94.2H12.15C11.5268 94.2 10.9291 93.9524 10.4883 93.5117C10.0476 93.071 9.80005 92.4732 9.80005 91.85V87.28C9.80005 87.0148 9.90541 86.7604 10.0929 86.5729C10.2805 86.3853 10.5348 86.28 10.8 86.28C11.0653 86.28 11.3196 86.3853 11.5072 86.5729C11.6947 86.7604 11.8 87.0148 11.8 87.28V91.85C11.8 91.9401 11.8359 92.0266 11.8996 92.0904C11.9634 92.1542 12.0499 92.19 12.14 92.19H89C89.0902 92.19 89.1767 92.1542 89.2405 92.0904C89.3042 92.0266 89.34 91.9401 89.34 91.85V36.19C89.3375 36.1006 89.3009 36.0156 89.2377 35.9524C89.1744 35.8891 89.0894 35.8525 89 35.85H86.86C86.5948 35.85 86.3405 35.7446 86.1529 35.5571C85.9654 35.3695 85.86 35.1152 85.86 34.85C85.86 34.5848 85.9654 34.3304 86.1529 34.1429C86.3405 33.9553 86.5948 33.85 86.86 33.85H89C89.6233 33.85 90.221 34.0976 90.6617 34.5383C91.1025 34.979 91.35 35.5767 91.35 36.2V91.85C91.35 92.4732 91.1025 93.071 90.6617 93.5117C90.221 93.9524 89.6233 94.2 89 94.2Z" fill="black"/>
<path d="M83.05 88.29H7.35C7.04139 88.29 6.73581 88.2292 6.45069 88.1111C6.16558 87.993 5.90652 87.8199 5.6883 87.6017C5.47008 87.3835 5.29698 87.1244 5.17888 86.8393C5.06078 86.5542 5 86.2486 5 85.94V29C4.99999 28.3758 5.24726 27.7771 5.68769 27.3348C6.12811 26.8925 6.72582 26.6427 7.35 26.64H24.59C24.8552 26.64 25.1096 26.7454 25.2971 26.9329C25.4846 27.1204 25.59 27.3748 25.59 27.64C25.59 27.9052 25.4846 28.1596 25.2971 28.3471C25.1096 28.5347 24.8552 28.64 24.59 28.64H7.35C7.30278 28.6385 7.25578 28.6469 7.21198 28.6646C7.16818 28.6823 7.12855 28.709 7.09562 28.7428C7.06269 28.7767 7.03718 28.8171 7.02072 28.8614C7.00425 28.9056 6.9972 28.9529 7 29V85.94C7.0026 86.0284 7.03957 86.1124 7.10305 86.174C7.16653 86.2356 7.25153 86.2701 7.34 86.27H83.04C83.1285 86.2701 83.2135 86.2356 83.2769 86.174C83.3404 86.1124 83.3774 86.0284 83.38 85.94V75.52C83.38 75.2548 83.4854 75.0004 83.6729 74.8129C83.8604 74.6254 84.1148 74.52 84.38 74.52C84.6452 74.52 84.8996 74.6254 85.0871 74.8129C85.2746 75.0004 85.38 75.2548 85.38 75.52V85.94C85.38 86.5598 85.1352 87.1545 84.6988 87.5947C84.2624 88.0348 83.6698 88.2847 83.05 88.29Z" fill="black"/>
<path d="M84.3901 65.0001C84.1249 65.0001 83.8706 64.8947 83.683 64.7072C83.4955 64.5196 83.3901 64.2653 83.3901 64.0001V45.1801C83.3901 44.9148 83.4955 44.6605 83.683 44.4729C83.8706 44.2854 84.1249 44.1801 84.3901 44.1801C84.6554 44.1801 84.9097 44.2854 85.0972 44.4729C85.2848 44.6605 85.3901 44.9148 85.3901 45.1801V64.0001C85.3901 64.2653 85.2848 64.5196 85.0972 64.7072C84.9097 64.8947 84.6554 65.0001 84.3901 65.0001Z" fill="black"/>
<path d="M50.57 28.66H31.73C31.4648 28.66 31.2104 28.5547 31.0229 28.3671C30.8353 28.1796 30.73 27.9253 30.73 27.66C30.73 27.3948 30.8353 27.1405 31.0229 26.9529C31.2104 26.7654 31.4648 26.66 31.73 26.66H50.57C50.8352 26.66 51.0896 26.7654 51.2771 26.9529C51.4646 27.1405 51.57 27.3948 51.57 27.66C51.57 27.9253 51.4646 28.1796 51.2771 28.3671C51.0896 28.5547 50.8352 28.66 50.57 28.66Z" fill="black"/>
<path d="M57 42.78H6C5.73478 42.78 5.48043 42.6747 5.29289 42.4871C5.10536 42.2996 5 42.0452 5 41.78C5 41.5148 5.10536 41.2605 5.29289 41.0729C5.48043 40.8854 5.73478 40.78 6 40.78H57C57.2652 40.78 57.5196 40.8854 57.7071 41.0729C57.8946 41.2605 58 41.5148 58 41.78C58 42.0452 57.8946 42.2996 57.7071 42.4871C57.5196 42.6747 57.2652 42.78 57 42.78Z" fill="black"/>
<path d="M13.8599 36.53C14.7878 36.53 15.5399 35.7779 15.5399 34.85C15.5399 33.9222 14.7878 33.17 13.8599 33.17C12.9321 33.17 12.1799 33.9222 12.1799 34.85C12.1799 35.7779 12.9321 36.53 13.8599 36.53Z" fill="black"/>
<path d="M20.0699 36.53C20.9977 36.53 21.7499 35.7779 21.7499 34.85C21.7499 33.9222 20.9977 33.17 20.0699 33.17C19.1421 33.17 18.3899 33.9222 18.3899 34.85C18.3899 35.7779 19.1421 36.53 20.0699 36.53Z" fill="black"/>
<path d="M26.2701 36.53C27.1979 36.53 27.9501 35.7779 27.9501 34.85C27.9501 33.9222 27.1979 33.17 26.2701 33.17C25.3422 33.17 24.5901 33.9222 24.5901 34.85C24.5901 35.7779 25.3422 36.53 26.2701 36.53Z" fill="black"/>
<path d="M18.72 70C18.5884 70.0008 18.4579 69.9756 18.3361 69.9258C18.2143 69.876 18.1035 69.8027 18.01 69.71C17.9148 69.6169 17.8391 69.5057 17.7874 69.3829C17.7358 69.2601 17.7091 69.1282 17.7091 68.995C17.7091 68.8618 17.7358 68.7299 17.7874 68.6072C17.8391 68.4844 17.9148 68.3731 18.01 68.28L24.82 61.48C24.8537 61.4431 24.8725 61.395 24.8725 61.345C24.8725 61.295 24.8537 61.2469 24.82 61.21L18 54.38C17.8977 54.288 17.8155 54.1759 17.7585 54.0507C17.7015 53.9255 17.671 53.7899 17.6688 53.6523C17.6666 53.5148 17.6929 53.3782 17.7459 53.2513C17.7989 53.1243 17.8775 53.0097 17.9768 52.9145C18.0761 52.8193 18.194 52.7456 18.3231 52.6981C18.4522 52.6505 18.5897 52.6302 18.7271 52.6382C18.8644 52.6462 18.9986 52.6825 19.1213 52.7447C19.2439 52.807 19.3525 52.8939 19.44 53L26.24 59.8C26.6528 60.2143 26.8846 60.7752 26.8846 61.36C26.8846 61.9448 26.6528 62.5058 26.24 62.92L19.44 69.73C19.3438 69.8203 19.2306 69.8907 19.107 69.937C18.9834 69.9833 18.8519 70.0048 18.72 70Z" fill="black"/>
<path d="M45.62 70H31.73C31.4648 70 31.2104 69.8946 31.0229 69.7071C30.8353 69.5196 30.73 69.2652 30.73 69C30.73 68.7348 30.8353 68.4804 31.0229 68.2929C31.2104 68.1054 31.4648 68 31.73 68H45.62C45.8852 68 46.1396 68.1054 46.3271 68.2929C46.5146 68.4804 46.62 68.7348 46.62 69C46.62 69.2652 46.5146 69.5196 46.3271 69.7071C46.1396 69.8946 45.8852 70 45.62 70Z" fill="black"/>
<path d="M73.3099 50.7001H73.2499L70.9399 50.6501C70.5998 50.6436 70.2643 50.5697 69.953 50.4326C69.6417 50.2955 69.3607 50.098 69.1262 49.8515C68.8918 49.605 68.7087 49.3144 68.5874 48.9966C68.4662 48.6788 68.4092 48.3401 68.4199 48.0001L68.4799 45.0001C68.4793 44.8737 68.4368 44.7511 68.3589 44.6515C68.2811 44.552 68.1724 44.4811 68.0499 44.4501C66.9314 44.1377 65.8487 43.7087 64.8199 43.1701C64.7082 43.1125 64.581 43.0921 64.4568 43.1119C64.3327 43.1317 64.2182 43.1906 64.1299 43.2801L62.1299 45.5801C61.6756 46.0865 61.0391 46.3922 60.3599 46.4301C60.0221 46.4516 59.6835 46.4052 59.364 46.2936C59.0445 46.1819 58.7507 46.0073 58.4999 45.7801L56.7199 44.2001C56.2112 43.7436 55.9044 43.1039 55.8669 42.4214C55.8294 41.739 56.0643 41.0695 56.5199 40.5601L58.5199 38.2701C58.5969 38.1716 58.6388 38.0501 58.6388 37.9251C58.6388 37.8 58.5969 37.6786 58.5199 37.5801C58.3599 37.3401 58.1999 37.0901 58.0499 36.8401C57.9775 36.7262 57.9289 36.599 57.9071 36.4659C57.8852 36.3328 57.8904 36.1967 57.9225 36.0657C57.9546 35.9347 58.0129 35.8115 58.0938 35.7036C58.1747 35.5957 58.2766 35.5053 58.3934 35.4378C58.5101 35.3703 58.6393 35.3271 58.7732 35.3109C58.9071 35.2946 59.0429 35.3056 59.1724 35.3432C59.3019 35.3808 59.4225 35.4441 59.5269 35.5295C59.6313 35.6149 59.7174 35.7206 59.7799 35.8401C59.9099 36.0601 60.0499 36.2701 60.1899 36.4801C60.5128 36.9546 60.6675 37.5235 60.6295 38.0962C60.5914 38.6689 60.3627 39.2124 59.9799 39.6401L57.9999 41.9001C57.8955 42.005 57.8368 42.147 57.8368 42.2951C57.8368 42.4431 57.8955 42.5851 57.9999 42.6901L59.7299 44.2401C59.8422 44.333 59.9841 44.3827 60.1299 44.3801C60.2796 44.3696 60.4194 44.3015 60.5199 44.1901L62.5699 41.9001C62.9554 41.4758 63.4704 41.1909 64.0347 41.0896C64.5989 40.9883 65.1808 41.0764 65.6899 41.3401C66.5932 41.8151 67.5455 42.1906 68.5299 42.4601C69.0962 42.5983 69.5987 42.9251 69.9549 43.3867C70.3111 43.8482 70.4997 44.4171 70.4899 45.0001L70.4299 48.0701C70.4283 48.1441 70.4416 48.2176 70.4691 48.2864C70.4966 48.3551 70.5377 48.4176 70.5899 48.4701C70.6925 48.5758 70.8326 48.6369 70.9799 48.6401H73.2899C73.434 48.6401 73.5724 48.5835 73.6753 48.4825C73.7782 48.3815 73.8373 48.2442 73.8399 48.1001L73.9099 45.0201C73.9224 44.4472 74.126 43.8949 74.4884 43.451C74.8508 43.0071 75.3511 42.697 75.9099 42.5701C77.2656 42.2501 78.5688 41.7383 79.7799 41.0501C80.2791 40.7664 80.8584 40.6567 81.4268 40.7381C81.9952 40.8196 82.5204 41.0876 82.9199 41.5001L85.0499 43.7101C85.0992 43.7643 85.1595 43.8075 85.2267 43.8368C85.2939 43.8661 85.3666 43.8808 85.4399 43.8801C85.5133 43.8836 85.5866 43.8721 85.6553 43.8463C85.7241 43.8205 85.7869 43.781 85.8399 43.7301L87.5099 42.1201C87.5641 42.0707 87.6073 42.0105 87.6366 41.9432C87.6659 41.876 87.6806 41.8034 87.6799 41.7301C87.6816 41.5827 87.6281 41.44 87.5299 41.3301L85.3999 39.1201C85.0143 38.7051 84.776 38.1747 84.7218 37.6108C84.6676 37.047 84.8004 36.4809 85.0999 36.0001C85.831 34.8151 86.3899 33.5323 86.7599 32.1901C86.912 31.6458 87.2374 31.1659 87.6867 30.823C88.136 30.4802 88.6847 30.2931 89.2499 30.2901L92.3199 30.3501C92.4673 30.3518 92.61 30.2983 92.7199 30.2001C92.7734 30.1481 92.8161 30.0859 92.8453 30.0172C92.8745 29.9485 92.8896 29.8747 92.8899 29.8001V27.4901C92.8934 27.4167 92.8819 27.3434 92.8561 27.2746C92.8303 27.2058 92.7908 27.143 92.7399 27.0901C92.6905 27.0358 92.6303 26.9926 92.5631 26.9633C92.4958 26.9341 92.4232 26.9193 92.3499 26.9201L89.2799 26.8601C88.7062 26.8463 88.1534 26.6424 87.7081 26.2804C87.2629 25.9184 86.9504 25.4188 86.8199 24.8601C86.5265 23.5127 86.0451 22.2133 85.3899 21.0001C85.1062 20.5008 84.9965 19.9215 85.0779 19.3531C85.1594 18.7847 85.4274 18.2595 85.8399 17.8601L88.0499 15.7301C88.1584 15.6285 88.223 15.4886 88.2299 15.3401C88.2289 15.1913 88.1717 15.0485 88.0699 14.9401L86.4699 13.2701C86.3625 13.1654 86.2198 13.1047 86.0699 13.1001C85.9954 13.0945 85.9207 13.106 85.8514 13.1337C85.782 13.1615 85.72 13.2047 85.6699 13.2601L83.4599 15.3901C83.0442 15.7843 82.5095 16.0295 81.9395 16.0874C81.3695 16.1453 80.7964 16.0126 80.3099 15.7101C79.0223 14.9123 77.619 14.3186 76.1499 13.9501C75.5862 13.8219 75.0821 13.5074 74.7192 13.0574C74.3563 12.6074 74.1557 12.0481 74.1499 11.4701V8.37006C74.1473 8.22234 74.0875 8.08139 73.983 7.97692C73.8786 7.87245 73.7376 7.81263 73.5899 7.81006H71.2999C71.1522 7.81263 71.0112 7.87245 70.9067 7.97692C70.8023 8.08139 70.7424 8.22234 70.7399 8.37006V11.4501C70.7536 12.0306 70.5703 12.5988 70.2198 13.0618C69.8694 13.5249 69.3724 13.8556 68.8099 14.0001C67.6199 14.311 66.4742 14.7713 65.3999 15.3701C64.899 15.6493 64.3194 15.7537 63.7526 15.6667C63.1858 15.5798 62.6641 15.3065 62.2699 14.8901L60.1499 12.6601C60.0449 12.5556 59.9029 12.497 59.7549 12.497C59.6068 12.497 59.4648 12.5556 59.3599 12.6601L57.6799 14.2501C57.5746 14.3539 57.5106 14.4925 57.4999 14.6401C57.4977 14.7141 57.5107 14.7879 57.5383 14.8567C57.5658 14.9255 57.6072 14.9879 57.6599 15.0401L59.7699 17.2801C60.161 17.6984 60.4018 18.2351 60.4543 18.8054C60.5068 19.3757 60.368 19.9473 60.0599 20.4301C59.2273 21.751 58.6097 23.1956 58.2299 24.7101C58.0921 25.2645 57.7734 25.7572 57.3243 26.1104C56.8752 26.4635 56.3212 26.6569 55.7499 26.6601H52.6699C52.5214 26.6601 52.3789 26.7191 52.2739 26.8241C52.1689 26.9291 52.1099 27.0715 52.1099 27.2201V29.5401C52.1125 29.6868 52.1727 29.8267 52.2774 29.9296C52.3821 30.0325 52.5231 30.0901 52.6699 30.0901H55.7599C56.3289 30.0882 56.8826 30.2745 57.3347 30.6199C57.7869 30.9653 58.1121 31.4506 58.2599 32.0001C58.3699 32.4001 58.4899 32.8001 58.6299 33.1801C58.6722 33.3048 58.6895 33.4367 58.6808 33.5681C58.672 33.6996 58.6374 33.828 58.5788 33.946C58.5203 34.064 58.439 34.1693 58.3396 34.2558C58.2403 34.3423 58.1248 34.4083 57.9999 34.4501C57.8758 34.4944 57.7442 34.5138 57.6126 34.5071C57.481 34.5004 57.352 34.4678 57.2331 34.4111C57.1141 34.3545 57.0076 34.2748 56.9195 34.1768C56.8314 34.0788 56.7636 33.9644 56.7199 33.8401C56.559 33.3944 56.4222 32.9404 56.3099 32.4801C56.2808 32.3557 56.2107 32.2447 56.111 32.1649C56.0112 32.0852 55.8876 32.0412 55.7599 32.0401H52.6799C51.9991 32.0374 51.3469 31.7658 50.8655 31.2844C50.3841 30.803 50.1125 30.1509 50.1099 29.4701V27.1801C50.1072 26.4975 50.3751 25.8417 50.8549 25.3563C51.3347 24.8709 51.9874 24.5953 52.6699 24.5901H55.7499C55.8745 24.5873 55.9948 24.5438 56.0924 24.4661C56.1899 24.3884 56.2593 24.2809 56.2899 24.1601C56.7191 22.4362 57.4213 20.7921 58.3699 19.2901C58.4387 19.185 58.4702 19.0598 58.4593 18.9347C58.4485 18.8095 58.3958 18.6917 58.3099 18.6001L56.1999 16.3701C55.9675 16.1242 55.7859 15.8348 55.6656 15.5185C55.5454 15.2023 55.4887 14.8654 55.4989 14.5272C55.5091 14.189 55.586 13.8562 55.7252 13.5478C55.8644 13.2394 56.0631 12.9615 56.3099 12.7301L57.9999 11.1301C58.4965 10.6619 59.1583 10.4096 59.8405 10.4283C60.5228 10.4471 61.1697 10.7353 61.6399 11.2301L63.7499 13.4701C63.8388 13.5591 63.9547 13.6163 64.0796 13.6326C64.2044 13.6488 64.3311 13.6234 64.4399 13.5601C65.6609 12.8831 66.9607 12.3592 68.3099 12.0001C68.4316 11.971 68.54 11.9021 68.618 11.8042C68.6959 11.7063 68.7388 11.5852 68.7399 11.4601V8.39006C68.7372 8.0522 68.8015 7.71715 68.929 7.40425C69.0565 7.09134 69.2446 6.80676 69.4826 6.56692C69.7206 6.32708 70.0037 6.13672 70.3156 6.00682C70.6275 5.87692 70.962 5.81005 71.2999 5.81006H73.6299C74.309 5.81267 74.9596 6.08291 75.4407 6.56215C75.9219 7.0414 76.1946 7.691 76.1999 8.37006V11.4501C76.2032 11.576 76.2482 11.6974 76.3278 11.7951C76.4074 11.8928 76.5172 11.9614 76.6399 11.9901C78.3102 12.409 79.9057 13.0837 81.3699 13.9901C81.4755 14.0572 81.6003 14.0877 81.725 14.0769C81.8497 14.066 81.9674 14.0144 82.0599 13.9301L84.2799 11.7901C84.7754 11.3261 85.4311 11.0717 86.1099 11.0801C86.449 11.0842 86.7839 11.1563 87.0948 11.2919C87.4057 11.4276 87.6862 11.6242 87.9199 11.8701L89.5199 13.5401C89.7548 13.7834 89.9394 14.0707 90.0631 14.3855C90.1867 14.7003 90.2471 15.0364 90.2406 15.3746C90.2341 15.7128 90.1609 16.0463 90.0252 16.3561C89.8895 16.666 89.694 16.946 89.4499 17.1801L87.2299 19.3001C87.1424 19.3902 87.0871 19.5067 87.0726 19.6315C87.0582 19.7562 87.0853 19.8823 87.1499 19.9901C87.9296 21.3675 88.5087 22.8491 88.8699 24.3901C88.895 24.5154 88.9622 24.6285 89.0605 24.7103C89.1587 24.7922 89.282 24.838 89.4099 24.8401L92.4799 24.9001C93.1624 24.9158 93.8109 25.2014 94.2833 25.6944C94.7556 26.1874 95.0133 26.8475 94.9999 27.5301V29.8401C94.9957 30.1792 94.9237 30.5141 94.788 30.825C94.6523 31.1358 94.4557 31.4164 94.2099 31.6501C93.7165 32.1186 93.0602 32.3768 92.3799 32.3701L89.3099 32.3101C89.1857 32.3132 89.0656 32.3555 88.9668 32.431C88.8681 32.5064 88.7956 32.6111 88.7599 32.7301C88.3305 34.2545 87.691 35.7119 86.8599 37.0601C86.7903 37.1667 86.7583 37.2935 86.7692 37.4204C86.7801 37.5473 86.8331 37.6668 86.9199 37.7601L88.9999 40.0001C89.4721 40.4911 89.7309 41.1489 89.7199 41.8301C89.7027 42.5133 89.4192 43.1629 88.9299 43.6401L87.2599 45.2401C86.7629 45.7092 86.1033 45.9673 85.4199 45.9601C85.0824 45.9546 84.7494 45.8819 84.4404 45.7462C84.1313 45.6106 83.8524 45.4147 83.6199 45.1701L81.4899 42.9501C81.3973 42.8632 81.2792 42.8085 81.1531 42.7941C81.027 42.7797 80.8996 42.8063 80.7899 42.8701C79.4125 43.6497 77.9309 44.2289 76.3899 44.5901C76.2661 44.6148 76.1543 44.6806 76.0727 44.7768C75.991 44.873 75.9442 44.9939 75.9399 45.1201L75.8799 48.2001C75.8591 48.8686 75.5796 49.503 75.1001 49.9694C74.6206 50.4358 73.9788 50.6978 73.3099 50.7001Z" fill="black"/>
<path d="M72.55 34.81C70.8558 34.7438 69.2531 34.0242 68.0778 32.8021C66.9025 31.5801 66.2461 29.9504 66.2461 28.2549C66.2461 26.5595 66.9025 24.9298 68.0778 23.7078C69.2531 22.4857 70.8558 21.7661 72.55 21.7C74.2829 21.6999 75.9455 22.3856 77.1746 23.6072C78.4036 24.8288 79.0994 26.4871 79.11 28.2199C79.1127 29.9582 78.4275 31.6269 77.204 32.8616C75.9805 34.0963 74.3182 34.7967 72.58 34.81H72.55ZM72.55 23.7099C71.9537 23.7112 71.3636 23.8312 70.8142 24.063C70.2648 24.2948 69.767 24.6337 69.35 25.0599C68.7166 25.6947 68.2857 26.5031 68.1121 27.3829C67.9385 28.2626 68.0299 29.1741 68.3747 30.0019C68.7195 30.8297 69.3022 31.5365 70.0491 32.0328C70.7959 32.5291 71.6733 32.7927 72.57 32.79C73.1662 32.7873 73.7561 32.6673 74.3059 32.4367C74.8557 32.2061 75.3547 31.8695 75.7744 31.4461C76.1942 31.0226 76.5264 30.5207 76.7521 29.9689C76.9778 29.417 77.0926 28.8262 77.09 28.2299C77.0821 27.0302 76.6006 25.882 75.7503 25.0355C74.9001 24.189 73.7498 23.7126 72.55 23.7099Z" fill="black"/>
<path d="M84.3901 72.42C84.1249 72.42 83.8706 72.3147 83.683 72.1272C83.4955 71.9396 83.3901 71.6853 83.3901 71.42V68.42C83.3901 68.1548 83.4955 67.9005 83.683 67.7129C83.8706 67.5254 84.1249 67.42 84.3901 67.42C84.6554 67.42 84.9097 67.5254 85.0972 67.7129C85.2848 67.9005 85.3901 68.1548 85.3901 68.42V71.42C85.3901 71.6853 85.2848 71.9396 85.0972 72.1272C84.9097 72.3147 84.6554 72.42 84.3901 72.42Z" fill="black"/>
</svg>
