<svg width="30" height="30" viewBox="0 0 30 30" fill="none" xmlns="http://www.w3.org/2000/svg">
<path fill-rule="evenodd" clip-rule="evenodd" d="M26.04 12.5625C26.0095 12.3361 25.9763 12.11 25.9402 11.8842L25.8601 11.3824C25.5786 9.61825 24.0568 8.32015 22.2703 8.32015H12.1241C11.7478 6.98145 10.5181 6 9.0591 6H6.19465C4.34111 6 2.77988 7.38498 2.55888 9.22529L2.21827 12.0617C1.85247 15.108 1.94687 18.1919 2.49834 21.2101C2.79336 22.8248 4.14378 24.0352 5.78102 24.1523L7.67352 24.2877C12.0057 24.5976 16.3544 24.5976 20.6866 24.2877L22.7339 24.1412C23.7446 24.0689 24.6396 23.5554 25.216 22.7825C25.9831 22.0467 26.5868 21.148 26.9773 20.1437L28.5391 16.1276C29.2062 14.4123 27.9408 12.5625 26.1003 12.5625H26.04ZM6.19465 7.875C5.29018 7.875 4.52835 8.55082 4.42051 9.44884L4.0799 12.2852C3.7365 15.1449 3.82513 18.0399 4.3428 20.8731C4.48408 21.6464 5.13077 22.226 5.91482 22.2821L6.02232 22.2898L8.93743 14.7591C9.44991 13.4352 10.7235 12.5625 12.1431 12.5625H24.1469C24.1284 12.4348 24.109 12.3072 24.0887 12.1798L24.0086 11.678C23.8722 10.8237 23.1354 10.1951 22.2703 10.1951L11.3793 10.1951C10.8205 10.1951 10.3676 9.74219 10.3676 9.18346C10.3676 8.46082 9.78175 7.875 9.0591 7.875H6.19465Z" fill="black"/>
</svg>
