<svg width="100" height="79" viewBox="0 0 100 79" fill="none" xmlns="http://www.w3.org/2000/svg">
<path d="M96.4286 0H3.57143C2.6246 0.00122848 1.71691 0.377897 1.0474 1.0474C0.377898 1.71691 0.00122848 2.6246 0 3.57143V75C0.00122848 75.9468 0.377898 76.8545 1.0474 77.524C1.71691 78.1935 2.6246 78.5702 3.57143 78.5714H96.4286C97.3754 78.5702 98.2831 78.1935 98.9526 77.524C99.6221 76.8545 99.9988 75.9468 100 75V3.57143C99.9988 2.6246 99.6221 1.71691 98.9526 1.0474C98.2831 0.377897 97.3754 0.00122848 96.4286 0ZM92.8571 8.92857C92.8571 9.28175 92.7524 9.627 92.5562 9.92066C92.36 10.2143 92.0811 10.4432 91.7548 10.5784C91.4285 10.7135 91.0694 10.7489 90.7231 10.68C90.3767 10.6111 90.0585 10.441 89.8087 10.1913C89.559 9.94153 89.3889 9.62334 89.32 9.27695C89.2511 8.93055 89.2865 8.5715 89.4216 8.24521C89.5568 7.91891 89.7857 7.64002 90.0793 7.4438C90.373 7.24759 90.7182 7.14286 91.0714 7.14286C91.545 7.14286 91.9992 7.33099 92.3341 7.66588C92.669 8.00077 92.8571 8.45497 92.8571 8.92857ZM30.3571 8.92857C30.3573 9.16311 30.3112 9.39539 30.2215 9.6121C30.1318 9.82882 30.0003 10.0257 29.8344 10.1916C29.6686 10.3574 29.4717 10.489 29.255 10.5786C29.0382 10.6683 28.806 10.7144 28.5714 10.7143H8.92857C8.45497 10.7143 8.00077 10.5261 7.66588 10.1913C7.33099 9.85638 7.14286 9.40217 7.14286 8.92857C7.14286 8.45497 7.33099 8.00077 7.66588 7.66588C8.00077 7.33099 8.45497 7.14286 8.92857 7.14286H28.5714C28.806 7.14272 29.0382 7.18881 29.255 7.2785C29.4717 7.36819 29.6686 7.49972 29.8344 7.66557C30.0003 7.83141 30.1318 8.02832 30.2215 8.24504C30.3112 8.46176 30.3573 8.69403 30.3571 8.92857ZM3.57143 75V17.8571H96.4286L96.4314 75H3.57143ZM50 25H10.7143C10.4797 24.9999 10.2475 25.046 10.0308 25.1356C9.81404 25.2253 9.61713 25.3569 9.45128 25.5227C9.28543 25.6886 9.15391 25.8855 9.06421 26.1022C8.97452 26.3189 8.92843 26.5512 8.92857 26.7857V62.5C8.92843 62.7345 8.97452 62.9668 9.06421 63.1835C9.15391 63.4002 9.28543 63.5972 9.45128 63.763C9.61713 63.9289 9.81404 64.0604 10.0308 64.1501C10.2475 64.2398 10.4797 64.2859 10.7143 64.2857H50C50.2345 64.2859 50.4668 64.2398 50.6835 64.1501C50.9002 64.0604 51.0972 63.9289 51.263 63.763C51.4289 63.5972 51.5604 63.4002 51.6501 63.1835C51.7398 62.9668 51.7859 62.7345 51.7857 62.5V26.7857C51.7859 26.5512 51.7398 26.3189 51.6501 26.1022C51.5604 25.8855 51.4289 25.6886 51.263 25.5227C51.0972 25.3569 50.9002 25.2253 50.6835 25.1356C50.4668 25.046 50.2345 24.9999 50 25ZM48.2143 28.5714V56.6407L40.4018 50.3907C40.1166 50.1637 39.7689 50.029 39.4052 50.0047C39.0415 49.9804 38.679 50.0676 38.3661 50.2546L30.6339 54.8945L22.6911 46.9518C22.3758 46.6368 21.9543 46.4509 21.509 46.4305C21.0638 46.4102 20.6271 46.557 20.2845 46.842L12.5 53.3291V28.5714H48.2143ZM28.5714 39.2857C28.5714 38.2262 28.8856 37.1904 29.4743 36.3094C30.0629 35.4285 30.8996 34.7418 31.8785 34.3364C32.8574 33.9309 33.9345 33.8248 34.9737 34.0315C36.0129 34.2382 36.9674 34.7484 37.7166 35.4976C38.4659 36.2469 38.9761 37.2014 39.1828 38.2406C39.3895 39.2798 39.2834 40.3569 38.8779 41.3358C38.4725 42.3147 37.7858 43.1514 36.9048 43.74C36.0239 44.3287 34.9881 44.6429 33.9286 44.6429C32.5082 44.6413 31.1465 44.0764 30.1422 43.0721C29.1379 42.0677 28.573 40.706 28.5714 39.2857ZM60.7143 44.6429H71.4286C71.6631 44.643 71.8954 44.5969 72.1121 44.5072C72.3288 44.4175 72.5257 44.286 72.6916 44.1201C72.8574 43.9543 72.989 43.7574 73.0786 43.5407C73.1683 43.324 73.2144 43.0917 73.2143 42.8571V26.7857C73.2144 26.5512 73.1683 26.3189 73.0786 26.1022C72.989 25.8855 72.8574 25.6886 72.6916 25.5227C72.5257 25.3569 72.3288 25.2253 72.1121 25.1356C71.8954 25.046 71.6631 24.9999 71.4286 25H60.7143C60.4797 24.9999 60.2475 25.046 60.0308 25.1356C59.814 25.2253 59.6171 25.3569 59.4513 25.5227C59.2854 25.6886 59.1539 25.8855 59.0642 26.1022C58.9745 26.3189 58.9284 26.5512 58.9286 26.7857V42.8571C58.9284 43.0917 58.9745 43.324 59.0642 43.5407C59.1539 43.7574 59.2854 43.9543 59.4513 44.1201C59.6171 44.286 59.814 44.4175 60.0308 44.5072C60.2475 44.5969 60.4797 44.643 60.7143 44.6429ZM62.5 28.5714H69.6429V41.0714H62.5V28.5714ZM89.2857 48.2143H60.7143C60.4797 48.2141 60.2475 48.2602 60.0308 48.3499C59.814 48.4396 59.6171 48.5711 59.4513 48.737C59.2854 48.9028 59.1539 49.0998 59.0642 49.3165C58.9745 49.5332 58.9284 49.7655 58.9286 50V62.5C58.9284 62.7345 58.9745 62.9668 59.0642 63.1835C59.1539 63.4002 59.2854 63.5972 59.4513 63.763C59.6171 63.9289 59.814 64.0604 60.0308 64.1501C60.2475 64.2398 60.4797 64.2859 60.7143 64.2857H89.2857C89.5203 64.2859 89.7525 64.2398 89.9692 64.1501C90.186 64.0604 90.3829 63.9289 90.5487 63.763C90.7146 63.5972 90.8461 63.4002 90.9358 63.1835C91.0255 62.9668 91.0716 62.7345 91.0714 62.5V50C91.0716 49.7655 91.0255 49.5332 90.9358 49.3165C90.8461 49.0998 90.7146 48.9028 90.5487 48.737C90.3829 48.5711 90.186 48.4396 89.9692 48.3499C89.7525 48.2602 89.5203 48.2141 89.2857 48.2143ZM87.5 60.7143H62.5V51.7857H87.5V60.7143ZM76.7857 28.5714C76.7856 28.3369 76.8317 28.1046 76.9214 27.8879C77.011 27.6712 77.1426 27.4743 77.3084 27.3084C77.4743 27.1426 77.6712 27.011 77.8879 26.9214C78.1046 26.8317 78.3369 26.7856 78.5714 26.7857H82.1429C82.6165 26.7857 83.0707 26.9738 83.4055 27.3087C83.7404 27.6436 83.9286 28.0978 83.9286 28.5714C83.9286 29.045 83.7404 29.4992 83.4055 29.8341C83.0707 30.169 82.6165 30.3571 82.1429 30.3571H78.5714C78.3369 30.3573 78.1046 30.3112 77.8879 30.2215C77.6712 30.1318 77.4743 30.0003 77.3084 29.8344C77.1426 29.6686 77.011 29.4717 76.9214 29.255C76.8317 29.0382 76.7856 28.806 76.7857 28.5714ZM76.7857 35.7143C76.7856 35.4797 76.8317 35.2475 76.9214 35.0308C77.011 34.814 77.1426 34.6171 77.3084 34.4513C77.4743 34.2854 77.6712 34.1539 77.8879 34.0642C78.1046 33.9745 78.3369 33.9284 78.5714 33.9286H89.2857C89.7593 33.9286 90.2135 34.1167 90.5484 34.4516C90.8833 34.7865 91.0714 35.2407 91.0714 35.7143C91.0714 36.1879 90.8833 36.6421 90.5484 36.977C90.2135 37.3119 89.7593 37.5 89.2857 37.5H78.5714C78.3369 37.5001 78.1046 37.454 77.8879 37.3644C77.6712 37.2747 77.4743 37.1431 77.3084 36.9773C77.1426 36.8114 77.011 36.6145 76.9214 36.3978C76.8317 36.1811 76.7856 35.9488 76.7857 35.7143ZM91.0714 42.8571C91.0716 43.0917 91.0255 43.324 90.9358 43.5407C90.8461 43.7574 90.7146 43.9543 90.5487 44.1201C90.3829 44.286 90.186 44.4175 89.9692 44.5072C89.7525 44.5969 89.5203 44.643 89.2857 44.6429H78.5714C78.0978 44.6429 77.6436 44.4547 77.3087 44.1198C76.9738 43.7849 76.7857 43.3307 76.7857 42.8571C76.7857 42.3835 76.9738 41.9293 77.3087 41.5945C77.6436 41.2596 78.0978 41.0714 78.5714 41.0714H89.2857C89.5203 41.0713 89.7525 41.1174 89.9692 41.2071C90.186 41.2968 90.3829 41.4283 90.5487 41.5941C90.7146 41.76 90.8461 41.9569 90.9358 42.1736C91.0255 42.3903 91.0716 42.6226 91.0714 42.8571Z" fill="black"/>
</svg>
