<svg width="100" height="100" viewBox="0 0 100 100" fill="none" xmlns="http://www.w3.org/2000/svg">
<path d="M34.6528 63.4982H12.0908C11.4853 63.4982 11.001 63.9385 11.001 64.4889C11.001 65.0393 11.4854 65.4796 12.0908 65.4796H34.6528C35.2582 65.4796 35.7426 65.0393 35.7426 64.4889C35.7426 63.9385 35.2582 63.4982 34.6528 63.4982Z" fill="black"/>
<path d="M12.0898 72.6564H31.5278C32.1333 72.6564 32.6176 72.216 32.6176 71.6657C32.6176 71.1153 32.1332 70.6749 31.5278 70.6749H12.0898C11.4843 70.6749 11 71.1153 11 71.6657C11 72.2161 11.4844 72.6564 12.0898 72.6564Z" fill="black"/>
<path d="M34.6528 77.8481H12.0908C11.4853 77.8481 11.001 78.2885 11.001 78.8389C11.001 79.3893 11.4854 79.8296 12.0908 79.8296H34.6528C35.2582 79.8296 35.7426 79.3893 35.7426 78.8389C35.7426 78.292 35.2582 77.8481 34.6528 77.8481Z" fill="black"/>
<path d="M12.0899 15.5363C11.6797 15.3836 11.2109 15.4795 10.9102 15.7565C10.8008 15.8382 10.7266 15.9624 10.668 16.0725C10.6055 16.1968 10.5742 16.3353 10.5742 16.4596C10.5742 16.5981 10.6055 16.7082 10.6641 16.8325C10.7266 16.9532 10.8008 17.0633 10.9102 17.1592C11.1055 17.3367 11.3945 17.4468 11.6836 17.4468C11.9727 17.4468 12.2461 17.3368 12.457 17.1592C12.543 17.0491 12.6367 16.9532 12.6953 16.8289C12.7422 16.7046 12.7695 16.5946 12.7695 16.4561C12.7695 16.1933 12.6484 15.9447 12.4531 15.7529C12.3633 15.6748 12.2266 15.5896 12.0899 15.5363Z" fill="black"/>
<path d="M18.3477 15.7572C18.043 15.4802 17.5586 15.3843 17.1524 15.537C17.0156 15.5939 16.9102 15.6755 16.8047 15.7572C16.6094 15.9348 16.4883 16.1976 16.4883 16.4603C16.4883 16.5988 16.5195 16.7089 16.5781 16.8332C16.6406 16.9575 16.7148 17.0534 16.8047 17.1635C17 17.341 17.2891 17.4511 17.5781 17.4511C17.8672 17.4511 18.1406 17.341 18.3516 17.1635C18.457 17.0676 18.5352 16.9575 18.5938 16.8332C18.6406 16.7089 18.668 16.5988 18.668 16.4603C18.668 16.3218 18.6367 16.1976 18.5781 16.0733C18.5313 15.9632 18.4531 15.8389 18.3477 15.7572Z" fill="black"/>
<path d="M23.8945 15.5364C23.6367 15.4405 23.332 15.4405 23.0625 15.5364C22.9102 15.5932 22.8047 15.6749 22.6992 15.7566C22.5039 15.9341 22.3828 16.1969 22.3828 16.4597C22.3828 16.5982 22.4141 16.7083 22.4727 16.8326C22.5352 16.9569 22.6094 17.0527 22.6992 17.1628C22.8047 17.2587 22.9258 17.3297 23.0625 17.3688C23.1992 17.4256 23.3203 17.4505 23.4727 17.4505C23.7617 17.4505 24.0352 17.3404 24.2461 17.1628C24.3516 17.0527 24.4414 16.9568 24.4883 16.8326C24.5352 16.7083 24.5625 16.5982 24.5625 16.4597C24.5625 16.1969 24.4414 15.9483 24.2461 15.7566C24.168 15.6749 24.0313 15.5897 23.8945 15.5364Z" fill="black"/>
<path d="M77.4537 15.4655H38.9697C38.3642 15.4655 37.8799 15.9058 37.8799 16.4562C37.8799 17.0066 38.3643 17.4469 38.9697 17.4469H77.4387C78.0442 17.4469 78.5285 17.0066 78.5285 16.4562C78.5324 15.9093 78.0435 15.4655 77.4537 15.4655Z" fill="black"/>
<path d="M97.2266 50.1209C97.2266 46.9959 94.4219 44.4462 90.9844 44.4462H89.9102V21.9389C89.9102 21.9247 89.8946 21.9105 89.8946 21.8963V16.5412C89.8946 12.9332 86.668 10 82.6993 10H9.1953C5.2265 10 2 12.9333 2 16.5412V21.9283V21.9425V83.3625C2 86.9705 5.2266 89.9037 9.1953 89.9037H82.7113C86.6801 89.9037 89.9222 86.9704 89.9222 83.3625V79.8327H90.9964C92.5433 79.8327 94.0276 79.3106 95.1331 78.3874C95.1956 78.3448 95.2386 78.2773 95.3011 78.2205C96.5277 77.1729 97.2386 75.7134 97.2386 74.1579L97.2425 50.1207L97.2266 50.1209ZM95.043 50.1209V74.1691C95.043 74.7905 94.8594 75.38 94.543 75.9056L82.316 57.1592C81.5582 55.9873 80.2105 55.2842 78.7262 55.2842H78.7106C77.2106 55.2842 75.8629 55.9874 75.1051 57.1592L66.1051 70.9729L59.0739 60.1738C58.3161 59.0019 56.9684 58.2988 55.4684 58.2988C53.9684 58.2988 52.6207 59.0019 51.8629 60.1738L41.6209 75.9156C41.3045 75.3936 41.1209 74.8005 41.1209 74.1791V50.12C41.1209 48.0816 42.9373 46.4268 45.1834 46.4268H91.0154C93.2263 46.4303 95.0427 48.0816 95.0427 50.12L95.043 50.1209ZM45.152 77.8482C44.4567 77.8482 43.7887 77.6706 43.1832 77.3652L53.7302 61.1788C54.4724 60.0496 56.4568 60.0496 57.1833 61.1788L64.82 72.9152L61.5934 77.8584L45.1524 77.8619L45.152 77.8482ZM78.711 44.4463H45.152C41.7145 44.4463 38.9098 46.9961 38.9098 50.1211V55.3128L15.6798 55.3163C14.3009 55.3163 13.1798 54.2972 13.1798 53.0294V33.3885C13.1798 32.1208 14.3009 31.1016 15.6798 31.1016H76.2108C77.5897 31.1016 78.7108 32.1208 78.7108 33.3885L78.711 44.4463ZM4.16803 16.5418C4.16803 14.0205 6.42583 11.9822 9.18363 11.9822H82.6836C85.457 11.9822 87.6992 14.0347 87.6992 16.5418V20.9488H4.16823L4.16803 16.5418ZM87.727 83.36C87.727 85.8813 85.4692 87.9196 82.6958 87.9196H9.17983C6.40643 87.9196 4.16423 85.8671 4.16423 83.36L4.16813 22.92H87.7301V44.4509H80.8981V33.3891C80.8981 31.0347 78.7926 29.1206 76.2145 29.1206L15.6795 29.1171C13.1053 29.1171 10.9959 31.0312 10.9959 33.3855V53.0128C10.9959 55.3672 13.1014 57.2812 15.6795 57.2812H38.9065V74.1558C38.9065 75.7964 39.68 77.3376 40.9807 78.3568C42.1174 79.3085 43.5862 79.8163 45.133 79.8163H87.707L87.7109 83.3603L87.727 83.36ZM88.8481 77.8486H88.8169H88.7856H64.1376L66.7001 73.9246L66.9111 73.6086L76.9851 58.1686C77.3483 57.6039 78.0007 57.2595 78.7273 57.2595C79.4382 57.2595 80.075 57.5897 80.4382 58.1686L92.9542 77.3695C92.3643 77.6713 91.6808 77.8524 90.9854 77.8524L88.8481 77.8486Z" fill="black"/>
<path d="M65.8325 60.2736C69.0591 60.2736 71.6958 57.8766 71.6958 54.9433C71.6958 52.01 69.0591 49.613 65.8325 49.613C62.5903 49.613 59.9536 52.01 59.9536 54.9433C59.9536 57.8766 62.5903 60.2736 65.8325 60.2736ZM65.8325 51.5946C67.8637 51.5946 69.5161 53.0967 69.5161 54.9433C69.5161 56.7899 67.8638 58.292 65.8325 58.292C63.8012 58.292 62.1372 56.7899 62.1372 54.9433C62.1372 53.0967 63.7895 51.5946 65.8325 51.5946Z" fill="black"/>
</svg>
