<svg width="100" height="100" viewBox="0 0 100 100" fill="none" xmlns="http://www.w3.org/2000/svg">
<path d="M99.4123 70.04C100.784 72.8171 99.6721 76.194 96.9278 77.5825L54.9689 98.813C51.8409 100.396 48.1591 100.396 45.0311 98.813L3.07218 77.5825C0.327917 76.194 -0.78441 72.8171 0.587719 70.04C1.95985 67.2629 5.29684 66.1373 8.0411 67.5258L50 88.7563L91.9589 67.5258C94.7032 66.1373 98.0401 67.2629 99.4123 70.04ZM99.4123 47.5525C100.784 50.3296 99.6721 53.7065 96.9278 55.095L54.9689 76.3254C51.8409 77.9082 48.1591 77.9082 45.0311 76.3254L3.07218 55.095C0.327917 53.7065 -0.78441 50.3296 0.587719 47.5525C1.95985 44.7754 5.29684 43.6497 8.0411 45.0383L50 66.2687L91.9589 45.0383C94.7032 43.6497 98.0401 44.7754 99.4123 47.5525ZM54.5125 0.969081L90.8327 17.3044C93.3463 18.435 95.3562 20.4689 96.4734 23.0126C98.9656 28.6872 96.4402 35.3318 90.8327 37.8538L54.5125 54.1892C51.6397 55.4813 48.3603 55.4813 45.4875 54.1892L9.16731 37.8538C6.65368 36.7233 4.64381 34.6894 3.52664 32.1457C1.03443 26.4711 3.55985 19.8265 9.16731 17.3044L45.4875 0.969081C48.3603 -0.323027 51.6397 -0.323027 54.5125 0.969081Z" fill="black"/>
</svg>
