<svg width="100" height="100" viewBox="0 0 100 100" fill="none" xmlns="http://www.w3.org/2000/svg">
<path d="M15.7925 63.3589C15.7884 63.5365 15.8317 63.7119 15.918 63.8672C16.0042 64.0225 16.1303 64.1519 16.2832 64.2422L50.4912 84.4502C50.6491 84.5436 50.8297 84.5917 51.0131 84.5893C51.1966 84.5869 51.3758 84.5341 51.5312 84.4366L83.7392 64.2286C83.8859 64.1365 84.0062 64.0079 84.0883 63.8554C84.1703 63.7029 84.2114 63.5317 84.2075 63.3586C84.2035 63.1855 84.1547 63.0163 84.0658 62.8677C83.9769 62.7191 83.8509 62.5961 83.7002 62.5108L73.1036 56.5202L83.7392 49.8472C83.8859 49.7551 84.0062 49.6266 84.0883 49.4741C84.1703 49.3216 84.2114 49.1504 84.2075 48.9772C84.2035 48.8041 84.1547 48.6349 84.0658 48.4863C83.9769 48.3377 83.8509 48.2147 83.7002 48.1294L73.1038 42.1389L83.7393 35.4659C83.886 35.3738 84.0063 35.2453 84.0884 35.0928C84.1705 34.9403 84.2115 34.769 84.2076 34.5959C84.2037 34.4227 84.1548 34.2536 84.0659 34.105C83.977 33.9563 83.851 33.8334 83.7002 33.7481L51.4922 15.5401C51.3458 15.4573 51.1809 15.4129 51.0128 15.4107C50.8447 15.4086 50.6787 15.4489 50.5303 15.5278L16.3223 33.7358C16.1656 33.8193 16.0339 33.943 15.9408 34.0942C15.8477 34.2454 15.7965 34.4187 15.7925 34.5962C15.7885 34.7738 15.8319 34.9492 15.9181 35.1044C16.0044 35.2596 16.1304 35.3891 16.2832 35.4795L27.5548 42.1382L16.3223 48.1172C16.1656 48.2007 16.0339 48.3244 15.9408 48.4756C15.8477 48.6268 15.7965 48.8 15.7925 48.9776C15.7886 49.1551 15.8319 49.3305 15.9182 49.4857C16.0044 49.641 16.1304 49.7704 16.2833 49.8608L27.5552 56.5196L16.3223 62.4986C16.1655 62.582 16.0338 62.7057 15.9406 62.8569C15.8475 63.0081 15.7964 63.1814 15.7925 63.3589ZM50.9854 17.5513L81.2554 34.6636L50.9844 53.6563L18.835 34.6641L50.9854 17.5513ZM29.5722 43.3301L50.4912 55.6881C50.6491 55.7814 50.8297 55.8295 51.0131 55.8271C51.1966 55.8247 51.3758 55.7719 51.5312 55.6744L71.1775 43.3476L81.2554 49.045L50.9844 68.0372L18.835 49.0455L29.5722 43.3301ZM29.5726 57.7115L50.4912 70.0689C50.6491 70.1623 50.8297 70.2104 51.0131 70.208C51.1966 70.2056 51.3758 70.1527 51.5312 70.0552L71.1773 57.7289L81.2554 63.4263L50.9844 82.4185L18.835 63.4268L29.5726 57.7115Z" fill="black"/>
</svg>
