<svg width="20" height="20" viewBox="0 0 20 20" fill="none" xmlns="http://www.w3.org/2000/svg">
<path d="M16.875 9.79173H16.7583C16.2792 7.65006 14.3667 6.04173 12.0833 6.04173H10.625V5.50839C11.35 5.25006 11.875 4.56256 11.875 3.75006C11.875 2.71673 11.0333 1.87506 10 1.87506C8.96667 1.87506 8.125 2.71673 8.125 3.75006C8.125 4.56256 8.65 5.25006 9.375 5.50839V6.04173H7.91667C5.63333 6.04173 3.72083 7.65006 3.24167 9.79173H3.125C2.4375 9.79173 1.875 10.3542 1.875 11.0417V12.2917C1.875 12.9792 2.4375 13.5417 3.125 13.5417H3.35417C3.84583 15.0751 5.0875 16.2667 6.64583 16.7001C6.52917 16.9459 6.45833 17.2126 6.45833 17.5001C6.45833 17.8459 6.7375 18.1251 7.08333 18.1251H12.9167C13.2625 18.1251 13.5417 17.8459 13.5417 17.5001C13.5417 17.2126 13.4708 16.9417 13.3542 16.7001C14.9125 16.2709 16.1542 15.0751 16.6458 13.5417H16.875C17.5625 13.5417 18.125 12.9792 18.125 12.2917V11.0417C18.125 10.3542 17.5625 9.79173 16.875 9.79173ZM10 3.12506C10.3458 3.12506 10.625 3.40423 10.625 3.75006C10.625 4.09589 10.3458 4.37506 10 4.37506C9.65417 4.37506 9.375 4.09589 9.375 3.75006C9.375 3.40423 9.65417 3.12506 10 3.12506ZM12.0833 15.6251H7.91667C5.9625 15.6251 4.375 14.0376 4.375 12.0834V10.8334C4.375 8.87923 5.9625 7.29173 7.91667 7.29173H12.0833C14.0375 7.29173 15.625 8.87923 15.625 10.8334V12.0834C15.625 14.0376 14.0375 15.6251 12.0833 15.6251Z" fill="black"/>
<path d="M7.70833 8.95839C7.02083 8.95839 6.45833 9.52089 6.45833 10.2084V11.4584C6.45833 12.1459 7.02083 12.7084 7.70833 12.7084C8.39583 12.7084 8.95833 12.1459 8.95833 11.4584V10.2084C8.95833 9.52089 8.39583 8.95839 7.70833 8.95839Z" fill="black"/>
<path d="M12.2917 8.95839C11.6042 8.95839 11.0417 9.52089 11.0417 10.2084V11.4584C11.0417 12.1459 11.6042 12.7084 12.2917 12.7084C12.9792 12.7084 13.5417 12.1459 13.5417 11.4584V10.2084C13.5417 9.52089 12.9792 8.95839 12.2917 8.95839Z" fill="black"/>
<path d="M5.6375 3.09173L6.8875 3.50839C6.95417 3.52923 7.02083 3.54173 7.08333 3.54173C7.34583 3.54173 7.5875 3.37506 7.675 3.11256C7.78333 2.78339 7.60833 2.42923 7.27917 2.32089L6.02917 1.90423C5.70417 1.79589 5.35 1.97089 5.2375 2.30006C5.125 2.62923 5.30417 2.98339 5.63333 3.09173H5.6375Z" fill="black"/>
<path d="M5.83333 5.62506C5.9 5.62506 5.96667 5.61673 6.02917 5.59173L7.27917 5.17506C7.60833 5.06673 7.78333 4.71256 7.675 4.38339C7.56667 4.05423 7.2125 3.87923 6.88333 3.98756L5.63333 4.40423C5.30417 4.51256 5.12917 4.86673 5.2375 5.19589C5.325 5.45839 5.56667 5.62506 5.82917 5.62506H5.83333Z" fill="black"/>
<path d="M12.9167 3.54173C12.9833 3.54173 13.05 3.53339 13.1125 3.50839L14.3625 3.09173C14.6917 2.98339 14.8667 2.62923 14.7583 2.30006C14.65 1.97089 14.2958 1.79589 13.9667 1.90423L12.7167 2.32089C12.3875 2.42923 12.2125 2.78339 12.3208 3.11256C12.4083 3.37506 12.65 3.54173 12.9125 3.54173H12.9167Z" fill="black"/>
<path d="M12.7208 5.17506L13.9708 5.59173C14.0375 5.61256 14.1042 5.62506 14.1667 5.62506C14.4292 5.62506 14.6708 5.45839 14.7583 5.19589C14.8667 4.86673 14.6917 4.51256 14.3625 4.40423L13.1125 3.98756C12.7875 3.87923 12.4292 4.05423 12.3208 4.38339C12.2125 4.71256 12.3875 5.06673 12.7167 5.17506H12.7208Z" fill="black"/>
</svg>
